<?xml version="1.0" encoding="utf-8"?>
<!-- Generator: Adobe Illustrator 28.3.0, SVG Export Plug-In . SVG Version: 6.00 Build 0)  -->
<svg version="1.1" id="Layer_1" xmlns="http://www.w3.org/2000/svg" xmlns:xlink="http://www.w3.org/1999/xlink" x="0px" y="0px"
	 viewBox="0 0 1106 515" style="enable-background:new 0 0 1106 515;" xml:space="preserve">
<style type="text/css">
	.st0{filter:url(#Adobe_OpacityMaskFilter);}
	.st1{fill:#FFFFFF;}
	.st2{mask:url(#SVGID_1_);fill:url(#SVGID_00000057139729422463976220000000882777940488357798_);}
</style>
<defs>
	<filter id="Adobe_OpacityMaskFilter" filterUnits="userSpaceOnUse" x="61" y="55" width="986" height="413.48">
		<feColorMatrix  type="matrix" values="1 0 0 0 0  0 1 0 0 0  0 0 1 0 0  0 0 0 1 0"/>
	</filter>
</defs>
<mask maskUnits="userSpaceOnUse" x="61" y="55" width="986" height="413.48" id="SVGID_1_">
	<g class="st0">
		<g>
			<path class="st1" d="M216.64,205c-5.57,7.63-12.56,13.25-20.78,16.69c-8.48,3.56-17.57,5.37-27,5.37
				c-10.6,0-20.23-1.8-28.63-5.34c-8.4-3.55-15.61-8.38-21.43-14.35c-5.82-5.98-10.37-13.03-13.52-20.93
				c-3.16-7.93-4.76-16.41-4.76-25.21c0-8.82,1.56-17.31,4.65-25.25c3.07-7.88,7.57-14.91,13.38-20.89
				c5.81-5.97,13.02-10.81,21.42-14.34c8.39-3.54,18.11-5.34,28.88-5.34c5.21,0,10.12,0.57,14.6,1.69
				c4.57,1.15,8.82,2.66,12.64,4.48c3.76,1.81,7.03,3.89,9.75,6.19c2.72,2.31,4.89,4.61,6.46,6.84l3.14,4.46l24.43-16.52l-3.51-4.66
				c-3.35-4.47-7.58-8.5-12.56-12.02c-4.87-3.43-10.31-6.38-16.16-8.78c-5.83-2.4-12.13-4.29-18.74-5.61
				c-6.61-1.32-13.44-1.99-20.3-1.99c-13.84,0-26.9,2.3-38.8,6.85c-11.92,4.57-22.41,10.99-31.17,19.07
				c-8.82,8.14-15.81,17.9-20.78,29.04c-4.99,11.18-7.52,23.56-7.52,36.8c0,13.23,2.48,25.61,7.38,36.75
				c4.89,11.16,11.8,20.94,20.52,29.07c8.71,8.11,19.21,14.53,31.22,19.09c11.98,4.55,25.16,6.86,39.16,6.86
				c8.44,0,16.37-0.89,23.55-2.63c7.16-1.75,13.82-4.14,19.78-7.14c6-3.02,11.37-6.59,15.97-10.59c4.58-3.98,8.55-8.28,11.79-12.77
				l3.56-4.92l-23.63-14.02L216.64,205z"/>
			<rect x="261.77" y="69.24" class="st1" width="30.16" height="183.98"/>
			<rect x="327.62" y="69.24" class="st1" width="30.16" height="183.98"/>
			<path class="st1" d="M479.65,169.58c4.07-0.85,7.96-1.99,11.63-3.43c6.42-2.52,12.07-5.94,16.79-10.2
				c4.76-4.29,8.58-9.44,11.36-15.29c2.81-5.94,4.25-12.56,4.25-19.72c0-9.36-1.83-17.48-5.44-24.14
				c-3.62-6.66-8.75-12.15-15.26-16.31c-6.28-4.01-13.77-6.93-22.25-8.7c-8.19-1.69-17.16-2.55-26.68-2.55h-60.62v183.98h30.16
				V172.4h23.19l51.89,80.82h36.7L479.65,169.58z M423.58,95.48h28.34c6.67,0,12.82,0.55,18.26,1.6c5.15,1.01,9.54,2.58,13.03,4.68
				c3.27,1.97,5.77,4.45,7.61,7.57c1.78,3.03,2.67,6.93,2.67,11.6c0,8.38-3.11,14.21-9.81,18.35c-7.37,4.55-18.33,6.86-32.56,6.86
				h-27.55V95.48z"/>
			<path class="st1" d="M140.62,343.91c-0.93,1.4-2.06,2.72-3.38,3.97c-1.32,1.24-2.85,2.34-4.59,3.29
				c-1.74,0.95-3.65,1.69-5.75,2.25c-2.1,0.55-4.39,0.82-6.88,0.82c-4.15,0-7.98-0.73-11.5-2.17c-3.53-1.45-6.56-3.46-9.09-6.03
				c-2.54-2.56-4.52-5.6-5.94-9.14c-1.43-3.51-2.14-7.37-2.14-11.58c0-4.19,0.72-8.04,2.18-11.58c1.45-3.51,3.46-6.56,6.02-9.12
				c2.56-2.57,5.59-4.58,9.09-6.03c3.5-1.45,7.29-2.18,11.38-2.18c2.02,0,4,0.2,5.94,0.64c1.94,0.42,3.77,1.01,5.48,1.78
				c1.71,0.76,3.26,1.68,4.66,2.74c1.4,1.06,2.56,2.28,3.5,3.62l-4.66,3.43c-0.57-0.89-1.34-1.77-2.29-2.65
				c-0.96-0.88-2.09-1.66-3.38-2.33c-1.29-0.67-2.71-1.23-4.24-1.63c-1.53-0.42-3.17-0.63-4.93-0.63c-3.57,0-6.78,0.65-9.6,1.93
				c-2.83,1.3-5.22,3.03-7.19,5.24c-1.97,2.19-3.48,4.74-4.51,7.63c-1.04,2.88-1.56,5.94-1.56,9.13c0,3.21,0.53,6.26,1.59,9.15
				c1.06,2.88,2.57,5.43,4.54,7.63c1.97,2.19,4.36,3.93,7.19,5.23c2.83,1.29,6,1.94,9.52,1.94c3.16,0,6.17-0.65,9.01-1.95
				c2.85-1.29,5.23-3.36,7.15-6.21L140.62,343.91z"/>
			<path class="st1" d="M182.11,333.58v1.16c0,0.42-0.03,0.86-0.08,1.32h-30.15c0.05,1.81,0.42,3.52,1.09,5.13
				c0.67,1.61,1.6,3,2.8,4.2c1.19,1.19,2.59,2.13,4.19,2.83c1.6,0.7,3.34,1.06,5.21,1.06c2.75,0,5.12-0.64,7.11-1.91
				c1.99-1.28,3.51-2.73,4.55-4.39l3.96,3.11c-2.18,2.74-4.57,4.72-7.19,5.91c-2.62,1.18-5.42,1.78-8.43,1.78
				c-2.69,0-5.19-0.48-7.5-1.44c-2.3-0.95-4.28-2.29-5.94-3.99c-1.66-1.71-2.96-3.73-3.93-6.06c-0.96-2.34-1.44-4.88-1.44-7.62
				c0-2.74,0.47-5.28,1.4-7.61c0.94-2.33,2.23-4.36,3.89-6.07c1.66-1.71,3.6-3.04,5.83-4c2.23-0.95,4.64-1.43,7.23-1.43
				c2.85,0,5.36,0.48,7.54,1.43c2.18,0.97,3.99,2.26,5.44,3.89c1.45,1.63,2.55,3.52,3.3,5.71
				C181.73,328.75,182.11,331.09,182.11,333.58 M176.75,331.87c-0.15-3.42-1.26-6.26-3.3-8.51c-2.05-2.25-4.96-3.38-8.74-3.38
				c-1.76,0-3.39,0.33-4.9,0.98c-1.5,0.64-2.83,1.53-3.97,2.64c-1.14,1.11-2.05,2.38-2.72,3.8c-0.67,1.43-1.06,2.93-1.17,4.48
				H176.75z"/>
			<path class="st1" d="M198.19,316.48c0.11,0.99,0.18,2.07,0.23,3.26c0.05,1.19,0.08,2.17,0.08,2.95h0.15
				c1.04-2.12,2.72-3.85,5.05-5.17c2.33-1.31,4.79-1.97,7.38-1.97c4.61,0,8.07,1.37,10.37,4.12c2.3,2.73,3.46,6.36,3.46,10.87v22.3
				h-5.28v-20.12c0-1.92-0.15-3.65-0.47-5.2c-0.31-1.56-0.84-2.89-1.59-4.01c-0.75-1.12-1.76-1.97-3.03-2.6
				c-1.27-0.62-2.86-0.93-4.78-0.93c-1.4,0-2.76,0.29-4.08,0.86c-1.32,0.57-2.5,1.44-3.54,2.6c-1.04,1.17-1.86,2.65-2.49,4.43
				c-0.62,1.79-0.93,3.89-0.93,6.33v18.65h-5.29v-28.36c0-0.99-0.02-2.25-0.08-3.8c-0.05-1.56-0.13-2.96-0.23-4.2H198.19z"/>
			<path class="st1" d="M255,320.9h-10.26v21.22c0,1.34,0.13,2.46,0.39,3.34c0.26,0.89,0.63,1.57,1.12,2.06
				c0.5,0.5,1.08,0.82,1.75,1.02c0.67,0.17,1.4,0.26,2.17,0.26c0.73,0,1.49-0.1,2.29-0.31c0.81-0.2,1.57-0.49,2.29-0.86l0.23,4.59
				c-0.93,0.37-1.9,0.63-2.91,0.81c-1.01,0.17-2.11,0.27-3.3,0.27c-0.98,0-2.02-0.13-3.11-0.38c-1.09-0.26-2.1-0.76-3.03-1.49
				c-0.93-0.73-1.7-1.71-2.29-2.95c-0.59-1.25-0.89-2.87-0.89-4.9V320.9h-7.54v-4.42h7.54v-10.27h5.28v10.27H255V320.9z"/>
			<path class="st1" d="M263.16,320.68c-0.05-1.56-0.13-2.96-0.23-4.2h5.05c0.11,0.99,0.18,2.07,0.23,3.26
				c0.05,1.19,0.08,2.18,0.08,2.95h0.16c1.04-2.12,2.59-3.85,4.66-5.16c2.07-1.33,4.4-1.98,6.99-1.98c0.67,0,1.28,0.02,1.83,0.08
				c0.54,0.05,1.1,0.15,1.67,0.3l-0.7,5.05c-0.31-0.1-0.83-0.2-1.56-0.3c-0.73-0.11-1.45-0.16-2.18-0.16c-1.4,0-2.75,0.26-4.04,0.78
				c-1.3,0.52-2.42,1.33-3.38,2.44c-0.96,1.12-1.74,2.54-2.33,4.26c-0.59,1.74-0.89,3.82-0.89,6.24v18.6h-5.28v-28.36
				C263.24,323.5,263.21,322.23,263.16,320.68"/>
			<path class="st1" d="M325.95,334.66c0,2.74-0.48,5.28-1.44,7.62c-0.96,2.33-2.29,4.34-4,6.06c-1.71,1.7-3.76,3.04-6.14,4
				c-2.39,0.95-5,1.43-7.85,1.43c-2.8,0-5.39-0.48-7.77-1.43c-2.39-0.97-4.43-2.3-6.14-4c-1.71-1.72-3.04-3.73-4-6.06
				c-0.96-2.34-1.44-4.88-1.44-7.62c0-2.74,0.48-5.28,1.44-7.61c0.96-2.33,2.29-4.36,4-6.07c1.71-1.7,3.75-3.05,6.14-4
				c2.38-0.95,4.97-1.43,7.77-1.43c2.85,0,5.46,0.48,7.85,1.43c2.38,0.95,4.43,2.3,6.14,4c1.71,1.71,3.04,3.74,4,6.07
				C325.46,329.38,325.95,331.92,325.95,334.66 M320.35,334.66c0-2.02-0.33-3.92-0.97-5.71c-0.65-1.79-1.57-3.34-2.76-4.66
				c-1.19-1.32-2.64-2.36-4.35-3.15c-1.71-0.77-3.62-1.16-5.75-1.16c-2.12,0-4.03,0.39-5.71,1.16c-1.69,0.79-3.12,1.83-4.31,3.15
				c-1.2,1.32-2.12,2.87-2.76,4.66c-0.65,1.79-0.97,3.7-0.97,5.71c0,2.02,0.32,3.92,0.97,5.7c0.64,1.8,1.56,3.35,2.76,4.67
				c1.19,1.31,2.62,2.35,4.31,3.11c1.68,0.75,3.59,1.13,5.71,1.13c2.13,0,4.04-0.38,5.75-1.13c1.71-0.76,3.16-1.8,4.35-3.11
				c1.19-1.32,2.11-2.87,2.76-4.67C320.02,338.59,320.35,336.68,320.35,334.66"/>
			<path class="st1" d="M386.64,346.71c-1.55,2.33-3.57,4.1-6.06,5.29c-2.49,1.18-5.05,1.78-7.69,1.78c-2.85,0-5.43-0.5-7.73-1.47
				c-2.3-0.99-4.27-2.33-5.91-4.04c-1.63-1.7-2.9-3.73-3.81-6.06c-0.9-2.33-1.36-4.85-1.36-7.54c0-2.69,0.46-5.2,1.36-7.53
				c0.91-2.33,2.18-4.36,3.81-6.06c1.63-1.71,3.6-3.06,5.91-4.05c2.3-0.98,4.89-1.46,7.73-1.46c2.64,0,5.21,0.61,7.69,1.82
				c2.49,1.21,4.51,3.03,6.06,5.4h0.15v-28.67h5.28v58.75h-5.28v-6.14H386.64z M359.67,334.66c0,2.02,0.31,3.92,0.93,5.7
				c0.62,1.8,1.51,3.35,2.68,4.67c1.17,1.31,2.6,2.35,4.31,3.11c1.71,0.75,3.65,1.13,5.83,1.13c2.02,0,3.89-0.38,5.59-1.13
				c1.71-0.76,3.19-1.78,4.43-3.07c1.24-1.3,2.21-2.85,2.91-4.63c0.7-1.79,1.05-3.72,1.05-5.79c0-2.07-0.35-4.01-1.05-5.79
				c-0.7-1.79-1.67-3.35-2.91-4.66c-1.24-1.32-2.72-2.36-4.43-3.11c-1.71-0.75-3.57-1.13-5.59-1.13c-2.18,0-4.12,0.39-5.83,1.16
				c-1.71,0.79-3.15,1.83-4.31,3.15c-1.17,1.32-2.06,2.87-2.68,4.66C359.98,330.74,359.67,332.65,359.67,334.66"/>
			<path class="st1" d="M439.32,333.58v1.16c0,0.42-0.03,0.86-0.08,1.32h-30.15c0.05,1.81,0.42,3.52,1.09,5.13
				c0.67,1.61,1.6,3,2.8,4.2c1.19,1.19,2.59,2.13,4.2,2.83c1.61,0.7,3.34,1.06,5.21,1.06c2.75,0,5.12-0.64,7.11-1.91
				c1.99-1.28,3.51-2.73,4.55-4.39l3.96,3.11c-2.18,2.74-4.58,4.72-7.19,5.91c-2.62,1.18-5.42,1.78-8.43,1.78
				c-2.69,0-5.19-0.48-7.5-1.44c-2.3-0.95-4.29-2.29-5.94-3.99c-1.66-1.71-2.96-3.73-3.92-6.06c-0.96-2.34-1.44-4.88-1.44-7.62
				c0-2.74,0.47-5.28,1.4-7.61c0.93-2.33,2.23-4.36,3.89-6.07c1.66-1.71,3.6-3.04,5.83-4c2.23-0.95,4.63-1.43,7.23-1.43
				c2.85,0,5.36,0.48,7.54,1.43c2.18,0.97,3.99,2.26,5.44,3.89c1.45,1.63,2.55,3.52,3.3,5.71
				C438.95,328.75,439.32,331.09,439.32,333.58 M433.96,331.87c-0.15-3.42-1.26-6.26-3.3-8.51c-2.05-2.25-4.96-3.38-8.74-3.38
				c-1.76,0-3.39,0.33-4.9,0.98c-1.5,0.64-2.82,1.53-3.96,2.64c-1.14,1.11-2.05,2.38-2.72,3.8c-0.67,1.43-1.06,2.93-1.17,4.48
				H433.96z"/>
			<polygon class="st1" points="476,347.88 505.46,347.88 505.46,352.84 470.41,352.84 470.41,297.82 504.52,297.82 504.52,302.8 
				476,302.8 476,321.69 502.66,321.69 502.66,326.66 476,326.66 			"/>
			<path class="st1" d="M535.45,325.1c-0.78-1.51-1.96-2.73-3.54-3.69c-1.58-0.95-3.38-1.44-5.4-1.44c-0.93,0-1.86,0.11-2.8,0.31
				c-0.94,0.21-1.77,0.54-2.49,1.01c-0.73,0.47-1.31,1.06-1.75,1.79c-0.44,0.73-0.66,1.58-0.66,2.57c0,1.7,0.7,3.01,2.1,3.92
				c1.4,0.9,3.6,1.66,6.6,2.29c4.3,0.88,7.47,2.16,9.52,3.85c2.04,1.68,3.07,3.95,3.07,6.8c0,2.07-0.4,3.82-1.2,5.25
				c-0.8,1.42-1.85,2.59-3.15,3.49c-1.3,0.91-2.76,1.56-4.39,1.95c-1.63,0.38-3.28,0.57-4.94,0.57c-2.75,0-5.42-0.57-8-1.71
				c-2.59-1.14-4.72-2.92-6.37-5.36l4.2-3.11c0.93,1.62,2.3,2.96,4.12,4.04c1.81,1.08,3.81,1.63,5.98,1.63c1.14,0,2.23-0.1,3.26-0.3
				c1.04-0.21,1.94-0.57,2.72-1.08c0.78-0.52,1.4-1.18,1.86-1.98c0.47-0.8,0.7-1.8,0.7-2.99c0-1.92-0.92-3.35-2.76-4.31
				c-1.83-0.95-4.49-1.85-7.96-2.68c-1.09-0.27-2.24-0.59-3.46-0.98c-1.22-0.39-2.35-0.95-3.38-1.71c-1.04-0.75-1.89-1.69-2.56-2.83
				c-0.68-1.14-1.01-2.57-1.01-4.27c0-1.87,0.36-3.46,1.09-4.78c0.72-1.32,1.7-2.41,2.91-3.27c1.22-0.85,2.6-1.49,4.16-1.9
				c1.56-0.42,3.16-0.63,4.82-0.63c2.54,0,5,0.58,7.38,1.71c2.38,1.15,4.17,2.75,5.36,4.82L535.45,325.1z"/>
			<path class="st1" d="M567,320.9h-10.26v21.22c0,1.34,0.13,2.46,0.39,3.34c0.26,0.89,0.63,1.57,1.13,2.06
				c0.49,0.5,1.07,0.82,1.74,1.02c0.67,0.17,1.4,0.26,2.18,0.26c0.73,0,1.49-0.1,2.29-0.31c0.8-0.2,1.56-0.49,2.29-0.86l0.23,4.59
				c-0.94,0.37-1.91,0.63-2.92,0.81c-1.01,0.17-2.11,0.27-3.3,0.27c-0.99,0-2.02-0.13-3.11-0.38c-1.09-0.26-2.1-0.76-3.03-1.49
				c-0.93-0.73-1.7-1.71-2.29-2.95c-0.59-1.25-0.89-2.87-0.89-4.9V320.9h-7.54v-4.42h7.54v-10.27h5.28v10.27H567V320.9z"/>
			<path class="st1" d="M601.66,352.84c-0.1-0.98-0.18-2.07-0.23-3.26c-0.05-1.19-0.08-2.17-0.08-2.95h-0.16
				c-1.04,2.12-2.72,3.85-5.05,5.17c-2.33,1.31-4.79,1.97-7.38,1.97c-4.61,0-8.07-1.37-10.37-4.12c-2.3-2.74-3.46-6.37-3.46-10.87
				v-22.3h5.28v20.12c0,1.92,0.15,3.65,0.47,5.22c0.31,1.55,0.84,2.88,1.59,3.99c0.75,1.12,1.76,1.99,3.03,2.61
				c1.27,0.62,2.86,0.93,4.77,0.93c1.4,0,2.76-0.29,4.08-0.86c1.32-0.57,2.5-1.44,3.54-2.6c1.04-1.17,1.86-2.64,2.49-4.43
				c0.62-1.79,0.93-3.89,0.93-6.33v-18.65h5.28v28.36c0,0.98,0.02,2.25,0.08,3.8c0.06,1.55,0.13,2.95,0.23,4.2H601.66z"/>
			<path class="st1" d="M650.31,346.71c-1.56,2.33-3.58,4.1-6.07,5.29c-2.48,1.18-5.05,1.78-7.69,1.78c-2.85,0-5.43-0.5-7.73-1.47
				c-2.3-0.99-4.28-2.33-5.91-4.04c-1.63-1.7-2.9-3.73-3.8-6.06c-0.91-2.33-1.36-4.85-1.36-7.54c0-2.69,0.45-5.2,1.36-7.53
				c0.9-2.33,2.17-4.36,3.8-6.06c1.63-1.71,3.6-3.06,5.91-4.05c2.3-0.98,4.88-1.46,7.73-1.46c2.65,0,5.21,0.61,7.69,1.82
				c2.49,1.21,4.51,3.03,6.07,5.4h0.15v-28.67h5.28v58.75h-5.28v-6.14H650.31z M623.34,334.66c0,2.02,0.31,3.92,0.93,5.7
				c0.62,1.8,1.52,3.35,2.68,4.67c1.16,1.31,2.6,2.35,4.31,3.11c1.71,0.75,3.65,1.13,5.83,1.13c2.02,0,3.89-0.38,5.6-1.13
				c1.71-0.76,3.18-1.78,4.43-3.07c1.24-1.3,2.21-2.85,2.91-4.63c0.7-1.79,1.05-3.72,1.05-5.79c0-2.07-0.35-4.01-1.05-5.79
				c-0.7-1.79-1.67-3.35-2.91-4.66c-1.25-1.32-2.72-2.36-4.43-3.11c-1.71-0.75-3.58-1.13-5.6-1.13c-2.17,0-4.11,0.39-5.83,1.16
				c-1.71,0.79-3.14,1.83-4.31,3.15c-1.17,1.32-2.06,2.87-2.68,4.66C623.65,330.74,623.34,332.65,623.34,334.66"/>
			<path class="st1" d="M676.34,302.49c0,1.09-0.39,1.99-1.17,2.69c-0.77,0.69-1.63,1.05-2.56,1.05c-0.93,0-1.79-0.36-2.56-1.05
				c-0.78-0.7-1.17-1.59-1.17-2.69c0-1.08,0.39-1.97,1.17-2.68c0.78-0.69,1.63-1.05,2.56-1.05c0.93,0,1.79,0.36,2.56,1.05
				C675.95,300.51,676.34,301.4,676.34,302.49 M675.25,352.84h-5.28v-36.36h5.28V352.84z"/>
			<path class="st1" d="M725.45,334.66c0,2.74-0.48,5.28-1.44,7.62c-0.96,2.33-2.29,4.34-4.01,6.06c-1.71,1.7-3.76,3.04-6.14,4
				c-2.39,0.95-5,1.43-7.85,1.43c-2.8,0-5.39-0.48-7.77-1.43c-2.38-0.97-4.43-2.3-6.14-4c-1.71-1.72-3.05-3.73-4.01-6.06
				c-0.96-2.34-1.44-4.88-1.44-7.62c0-2.74,0.48-5.28,1.44-7.61c0.96-2.33,2.29-4.36,4.01-6.07c1.71-1.7,3.75-3.05,6.14-4
				c2.38-0.95,4.98-1.43,7.77-1.43c2.85,0,5.46,0.48,7.85,1.43c2.38,0.95,4.43,2.3,6.14,4c1.71,1.71,3.04,3.74,4.01,6.07
				C724.97,329.38,725.45,331.92,725.45,334.66 M719.86,334.66c0-2.02-0.33-3.92-0.98-5.71c-0.65-1.79-1.57-3.34-2.76-4.66
				c-1.19-1.32-2.64-2.36-4.35-3.15c-1.71-0.77-3.63-1.16-5.75-1.16c-2.12,0-4.03,0.39-5.71,1.16c-1.69,0.79-3.12,1.83-4.32,3.15
				c-1.19,1.32-2.11,2.87-2.76,4.66c-0.65,1.79-0.97,3.7-0.97,5.71c0,2.02,0.32,3.92,0.97,5.7c0.65,1.8,1.57,3.35,2.76,4.67
				c1.2,1.31,2.63,2.35,4.32,3.11c1.68,0.75,3.59,1.13,5.71,1.13c2.12,0,4.04-0.38,5.75-1.13c1.71-0.76,3.15-1.8,4.35-3.11
				c1.19-1.32,2.11-2.87,2.76-4.67C719.53,338.59,719.86,336.68,719.86,334.66"/>
			<path class="st1" d="M756.15,325.1c-0.78-1.51-1.96-2.73-3.53-3.69c-1.58-0.95-3.38-1.44-5.4-1.44c-0.93,0-1.87,0.11-2.8,0.31
				c-0.93,0.21-1.76,0.54-2.48,1.01c-0.73,0.47-1.31,1.06-1.75,1.79c-0.44,0.73-0.66,1.58-0.66,2.57c0,1.7,0.7,3.01,2.1,3.92
				c1.4,0.9,3.6,1.66,6.61,2.29c4.3,0.88,7.47,2.16,9.52,3.85c2.04,1.68,3.07,3.95,3.07,6.8c0,2.07-0.4,3.82-1.2,5.25
				c-0.81,1.42-1.85,2.59-3.15,3.49c-1.29,0.91-2.76,1.56-4.39,1.95c-1.63,0.38-3.28,0.57-4.93,0.57c-2.75,0-5.41-0.57-8.01-1.71
				c-2.59-1.14-4.72-2.92-6.37-5.36l4.2-3.11c0.93,1.62,2.3,2.96,4.12,4.04c1.81,1.08,3.8,1.63,5.98,1.63c1.14,0,2.22-0.1,3.26-0.3
				c1.04-0.21,1.94-0.57,2.72-1.08c0.78-0.52,1.4-1.18,1.86-1.98c0.47-0.8,0.7-1.8,0.7-2.99c0-1.92-0.92-3.35-2.76-4.31
				c-1.84-0.95-4.5-1.85-7.97-2.68c-1.08-0.27-2.24-0.59-3.46-0.98c-1.22-0.39-2.35-0.95-3.38-1.71c-1.04-0.75-1.89-1.69-2.56-2.83
				c-0.68-1.14-1.02-2.57-1.02-4.27c0-1.87,0.36-3.46,1.09-4.78c0.72-1.32,1.7-2.41,2.92-3.27c1.21-0.85,2.6-1.49,4.16-1.9
				c1.55-0.42,3.16-0.63,4.81-0.63c2.54,0,5,0.58,7.38,1.71c2.39,1.15,4.17,2.75,5.36,4.82L756.15,325.1z"/>
			<rect x="93.06" y="375.53" class="st1" width="9.79" height="55.02"/>
			<path class="st1" d="M114.5,393.26h8.86v5.98h0.15c0.83-1.86,2.27-3.52,4.31-4.94c2.05-1.42,4.47-2.13,7.27-2.13
				c2.44,0,4.52,0.43,6.26,1.29c1.74,0.85,3.16,1.97,4.27,3.37c1.12,1.4,1.93,3.01,2.45,4.82c0.52,1.81,0.78,3.68,0.78,5.6v23.31
				h-9.33v-20.66c0-1.09-0.08-2.23-0.23-3.43c-0.15-1.19-0.49-2.27-1.01-3.22c-0.52-0.96-1.23-1.76-2.14-2.37
				c-0.91-0.62-2.11-0.93-3.61-0.93c-1.5,0-2.8,0.3-3.89,0.9c-1.09,0.6-1.98,1.36-2.68,2.29c-0.7,0.93-1.23,2.01-1.59,3.22
				c-0.36,1.23-0.54,2.45-0.54,3.7v20.51h-9.33V393.26z"/>
			<path class="st1" d="M154.37,400.72v-7.47h6.53v-10.8h9.17v10.8h9.32v7.47h-9.32v17.32c0,1.66,0.3,3.04,0.89,4.12
				c0.6,1.1,1.93,1.64,4,1.64c0.62,0,1.29-0.07,2.02-0.19c0.73-0.13,1.37-0.33,1.94-0.59l0.31,7.31c-0.83,0.31-1.82,0.55-2.95,0.74
				c-1.14,0.18-2.23,0.27-3.27,0.27c-2.49,0-4.51-0.35-6.06-1.05c-1.56-0.69-2.79-1.66-3.69-2.87c-0.91-1.21-1.53-2.61-1.87-4.2
				c-0.34-1.58-0.51-3.27-0.51-5.1v-17.4H154.37z"/>
			<path class="st1" d="M221.74,412.37v1.24c0,0.42-0.03,0.83-0.08,1.25H193.3c0.1,1.36,0.45,2.58,1.05,3.7
				c0.59,1.11,1.38,2.07,2.37,2.87c0.98,0.8,2.1,1.43,3.34,1.9c1.24,0.47,2.54,0.7,3.89,0.7c2.33,0,4.3-0.43,5.91-1.28
				c1.61-0.86,2.93-2.03,3.96-3.54l6.22,4.98c-3.68,4.97-9.01,7.46-16.01,7.46c-2.9,0-5.57-0.47-8-1.37
				c-2.44-0.91-4.55-2.19-6.33-3.85c-1.79-1.65-3.19-3.68-4.2-6.1c-1.01-2.4-1.51-5.13-1.51-8.19c0-3.01,0.5-5.74,1.51-8.21
				c1.01-2.46,2.4-4.55,4.16-6.29c1.76-1.74,3.85-3.09,6.26-4.04c2.41-0.95,5.01-1.44,7.81-1.44c2.59,0,4.98,0.42,7.19,1.29
				c2.2,0.86,4.1,2.11,5.71,3.81c1.6,1.68,2.86,3.78,3.77,6.29C221.29,406.06,221.74,409,221.74,412.37 M212.42,408.18
				c0-1.19-0.17-2.33-0.5-3.42c-0.34-1.09-0.87-2.05-1.59-2.88c-0.73-0.82-1.65-1.49-2.76-1.97c-1.12-0.5-2.43-0.74-3.92-0.74
				c-2.8,0-5.17,0.83-7.11,2.52c-1.94,1.69-3.02,3.85-3.22,6.49H212.42z"/>
			<path class="st1" d="M230.75,393.26h8.94v6.21h0.16c1.04-2.18,2.49-3.93,4.35-5.28c1.87-1.34,4.04-2.03,6.53-2.03
				c0.37,0,0.75,0.02,1.17,0.04c0.41,0.02,0.78,0.08,1.09,0.19v8.54c-0.62-0.15-1.16-0.25-1.59-0.3c-0.44-0.07-0.86-0.09-1.28-0.09
				c-2.12,0-3.83,0.39-5.13,1.17c-1.29,0.78-2.3,1.71-3.03,2.8c-0.73,1.08-1.22,2.2-1.48,3.34c-0.25,1.14-0.39,2.05-0.39,2.72v19.97
				h-9.33V393.26z"/>
			<path class="st1" d="M283.13,403.59c-0.73-1.04-1.82-1.91-3.26-2.6c-1.45-0.7-2.93-1.05-4.43-1.05c-1.71,0-3.21,0.35-4.51,1.05
				c-1.3,0.69-2.37,1.62-3.23,2.75c-0.86,1.14-1.49,2.43-1.91,3.85c-0.41,1.43-0.62,2.86-0.62,4.31c0,1.45,0.22,2.9,0.66,4.3
				c0.44,1.43,1.1,2.72,1.98,3.86c0.88,1.14,1.98,2.06,3.3,2.75c1.32,0.7,2.86,1.04,4.62,1.04c1.45,0,2.9-0.27,4.35-0.85
				c1.45-0.57,2.61-1.4,3.5-2.48l5.83,5.9c-1.56,1.66-3.54,2.95-5.95,3.85c-2.41,0.91-5.01,1.37-7.81,1.37
				c-2.75,0-5.35-0.44-7.81-1.33c-2.46-0.87-4.61-2.17-6.45-3.88c-1.84-1.7-3.29-3.77-4.35-6.21c-1.07-2.44-1.59-5.2-1.59-8.32
				c0-3,0.53-5.72,1.59-8.16c1.06-2.43,2.5-4.5,4.31-6.21c1.82-1.71,3.92-3.03,6.33-3.97c2.41-0.93,4.98-1.4,7.73-1.4
				c2.74,0,5.4,0.52,7.96,1.56c2.57,1.03,4.6,2.46,6.1,4.27L283.13,403.59z"/>
			<path class="st1" d="M329.6,430.55h-8.86v-5.98h-0.15c-0.83,1.86-2.27,3.51-4.31,4.94c-2.05,1.41-4.47,2.12-7.27,2.12
				c-2.44,0-4.52-0.42-6.26-1.28c-1.74-0.85-3.17-1.99-4.27-3.38c-1.12-1.4-1.93-3-2.45-4.81c-0.52-1.81-0.78-3.67-0.78-5.59v-23.32
				h9.33v20.68c0,1.1,0.08,2.22,0.23,3.43c0.15,1.19,0.49,2.25,1.01,3.22c0.52,0.97,1.23,1.76,2.14,2.38
				c0.91,0.62,2.11,0.93,3.61,0.93c1.45,0,2.73-0.3,3.85-0.9c1.12-0.6,2.02-1.35,2.72-2.29c0.7-0.93,1.22-2.02,1.59-3.22
				c0.36-1.23,0.54-2.45,0.54-3.7v-20.52h9.33V430.55z"/>
			<rect x="340.95" y="371.81" class="st1" width="9.33" height="58.75"/>
			<path class="st1" d="M356.26,400.72v-7.47h6.53v-10.8h9.17v10.8h9.32v7.47h-9.32v17.32c0,1.66,0.3,3.04,0.89,4.12
				c0.6,1.1,1.93,1.64,4,1.64c0.62,0,1.29-0.07,2.02-0.19c0.73-0.13,1.37-0.33,1.94-0.59l0.31,7.31c-0.83,0.31-1.82,0.55-2.95,0.74
				c-1.14,0.18-2.23,0.27-3.27,0.27c-2.49,0-4.51-0.35-6.06-1.05c-1.56-0.69-2.79-1.66-3.69-2.87c-0.91-1.21-1.53-2.61-1.87-4.2
				c-0.34-1.58-0.51-3.27-0.51-5.1v-17.4H356.26z"/>
			<path class="st1" d="M422.08,430.55h-8.86v-5.98h-0.15c-0.83,1.86-2.27,3.51-4.31,4.94c-2.05,1.41-4.47,2.12-7.27,2.12
				c-2.44,0-4.52-0.42-6.26-1.28c-1.74-0.85-3.17-1.99-4.27-3.38c-1.12-1.4-1.93-3-2.45-4.81c-0.52-1.81-0.78-3.67-0.78-5.59v-23.32
				h9.33v20.68c0,1.1,0.08,2.22,0.23,3.43c0.15,1.19,0.49,2.25,1.01,3.22c0.52,0.97,1.23,1.76,2.14,2.38
				c0.91,0.62,2.11,0.93,3.61,0.93c1.45,0,2.73-0.3,3.85-0.9c1.12-0.6,2.02-1.35,2.72-2.29c0.7-0.93,1.23-2.02,1.59-3.22
				c0.36-1.23,0.54-2.45,0.54-3.7v-20.52h9.33V430.55z"/>
			<path class="st1" d="M433.26,393.26h8.94v6.21h0.16c1.04-2.18,2.49-3.93,4.35-5.28c1.87-1.34,4.04-2.03,6.53-2.03
				c0.37,0,0.75,0.02,1.16,0.04c0.42,0.02,0.78,0.08,1.09,0.19v8.54c-0.62-0.15-1.15-0.25-1.59-0.3c-0.44-0.07-0.86-0.09-1.28-0.09
				c-2.12,0-3.84,0.39-5.13,1.17c-1.29,0.78-2.3,1.71-3.03,2.8c-0.73,1.08-1.22,2.2-1.48,3.34c-0.25,1.14-0.39,2.05-0.39,2.72v19.97
				h-9.33V393.26z"/>
			<path class="st1" d="M483.7,425.82h-0.23c-0.93,1.66-2.44,3.03-4.51,4.08c-2.07,1.06-4.43,1.59-7.07,1.59
				c-1.5,0-3.07-0.2-4.7-0.58c-1.63-0.39-3.14-1.04-4.5-1.95c-1.37-0.9-2.51-2.1-3.42-3.57c-0.9-1.47-1.36-3.31-1.36-5.49
				c0-2.8,0.79-5.02,2.37-6.69c1.58-1.65,3.61-2.92,6.1-3.8c2.49-0.89,5.25-1.46,8.28-1.76c3.03-0.28,6-0.42,8.9-0.42v-0.93
				c0-2.34-0.84-4.05-2.53-5.17c-1.68-1.12-3.69-1.67-6.02-1.67c-1.97,0-3.86,0.41-5.67,1.24c-1.82,0.83-3.32,1.84-4.51,3.03
				l-4.82-5.67c2.13-1.97,4.58-3.45,7.35-4.42c2.78-0.99,5.58-1.48,8.43-1.48c3.31,0,6.05,0.47,8.2,1.4
				c2.15,0.93,3.85,2.16,5.09,3.65c1.24,1.51,2.11,3.19,2.6,5.05c0.49,1.87,0.74,3.73,0.74,5.59v22.69h-8.71V425.82z M483.55,413.54
				h-2.1c-1.5,0-3.08,0.06-4.74,0.19c-1.66,0.12-3.19,0.4-4.59,0.85c-1.4,0.44-2.56,1.06-3.5,1.87c-0.93,0.81-1.4,1.91-1.4,3.31
				c0,0.88,0.2,1.62,0.58,2.21c0.39,0.6,0.89,1.08,1.52,1.43c0.62,0.37,1.32,0.63,2.1,0.79c0.78,0.14,1.56,0.23,2.33,0.23
				c3.21,0,5.65-0.86,7.3-2.56c1.66-1.72,2.49-4.04,2.49-7V413.54z"/>
			<rect x="503.44" y="371.81" class="st1" width="9.33" height="58.75"/>
			<path class="st1" d="M559.7,412.37v1.24c0,0.42-0.03,0.83-0.08,1.25h-28.36c0.1,1.36,0.45,2.58,1.05,3.7
				c0.59,1.11,1.38,2.07,2.37,2.87c0.98,0.8,2.1,1.43,3.34,1.9c1.24,0.47,2.54,0.7,3.89,0.7c2.33,0,4.3-0.43,5.91-1.28
				c1.6-0.86,2.92-2.03,3.96-3.54l6.22,4.98c-3.68,4.97-9.01,7.46-16.01,7.46c-2.91,0-5.58-0.47-8.01-1.37
				c-2.44-0.91-4.54-2.19-6.33-3.85c-1.79-1.65-3.19-3.68-4.2-6.1c-1.01-2.4-1.52-5.13-1.52-8.19c0-3.01,0.5-5.74,1.52-8.21
				c1.01-2.46,2.4-4.55,4.16-6.29c1.76-1.74,3.85-3.09,6.26-4.04c2.41-0.95,5.01-1.44,7.81-1.44c2.59,0,4.98,0.42,7.19,1.29
				c2.2,0.86,4.1,2.11,5.71,3.81c1.6,1.68,2.86,3.78,3.77,6.29C559.25,406.06,559.7,409,559.7,412.37 M550.38,408.18
				c0-1.19-0.17-2.33-0.5-3.42c-0.34-1.09-0.87-2.05-1.59-2.88c-0.73-0.82-1.65-1.49-2.76-1.97c-1.12-0.5-2.43-0.74-3.92-0.74
				c-2.8,0-5.17,0.83-7.11,2.52c-1.94,1.69-3.02,3.85-3.23,6.49H550.38z"/>
			<path class="st1" d="M589.15,403.2c-0.83-1.08-1.97-2.03-3.42-2.83c-1.45-0.8-3.03-1.21-4.74-1.21c-1.51,0-2.88,0.31-4.12,0.93
				c-1.24,0.63-1.86,1.67-1.86,3.11c0,1.45,0.69,2.47,2.06,3.07c1.37,0.6,3.38,1.2,6.02,1.83c1.4,0.3,2.81,0.73,4.23,1.24
				c1.43,0.52,2.72,1.21,3.89,2.06c1.17,0.86,2.11,1.92,2.84,3.19c0.73,1.28,1.09,2.82,1.09,4.63c0,2.28-0.43,4.21-1.28,5.79
				c-0.85,1.58-1.99,2.85-3.41,3.85c-1.43,0.99-3.08,1.69-4.98,2.14c-1.89,0.43-3.85,0.66-5.86,0.66c-2.91,0-5.72-0.54-8.47-1.59
				c-2.75-1.06-5.02-2.58-6.84-4.55l6.14-5.75c1.03,1.34,2.38,2.46,4.04,3.34c1.66,0.89,3.5,1.32,5.52,1.32
				c0.67,0,1.36-0.08,2.06-0.23c0.7-0.16,1.34-0.4,1.95-0.75c0.59-0.34,1.07-0.78,1.44-1.36c0.36-0.56,0.54-1.27,0.54-2.1
				c0-1.55-0.71-2.67-2.14-3.34c-1.43-0.67-3.56-1.34-6.41-2.02c-1.4-0.31-2.76-0.72-4.08-1.2c-1.32-0.5-2.5-1.14-3.54-1.94
				c-1.03-0.8-1.87-1.8-2.48-2.99c-0.62-1.2-0.93-2.67-0.93-4.43c0-2.07,0.42-3.86,1.28-5.37c0.86-1.5,1.98-2.73,3.38-3.69
				c1.4-0.95,2.98-1.67,4.74-2.13c1.76-0.47,3.58-0.7,5.44-0.7c2.69,0,5.32,0.47,7.89,1.4c2.56,0.93,4.6,2.35,6.1,4.28L589.15,403.2
				z"/>
			<path class="st1" d="M658.24,412.37v1.24c0,0.42-0.03,0.83-0.08,1.25H629.8c0.1,1.36,0.45,2.58,1.05,3.7
				c0.6,1.11,1.38,2.07,2.37,2.87c0.98,0.8,2.1,1.43,3.34,1.9c1.24,0.47,2.54,0.7,3.89,0.7c2.33,0,4.3-0.43,5.9-1.28
				c1.61-0.86,2.93-2.03,3.97-3.54l6.21,4.98c-3.68,4.97-9.01,7.46-16.01,7.46c-2.9,0-5.57-0.47-8-1.37
				c-2.44-0.91-4.55-2.19-6.34-3.85c-1.79-1.65-3.19-3.68-4.19-6.1c-1.01-2.4-1.51-5.13-1.51-8.19c0-3.01,0.5-5.74,1.51-8.21
				c1.01-2.46,2.4-4.55,4.16-6.29c1.76-1.74,3.85-3.09,6.25-4.04c2.41-0.95,5.01-1.44,7.81-1.44c2.59,0,4.98,0.42,7.19,1.29
				c2.2,0.86,4.1,2.11,5.71,3.81c1.61,1.68,2.86,3.78,3.77,6.29C657.78,406.06,658.24,409,658.24,412.37 M648.91,408.18
				c0-1.19-0.17-2.33-0.5-3.42c-0.34-1.09-0.87-2.05-1.59-2.88c-0.73-0.82-1.65-1.49-2.76-1.97c-1.11-0.5-2.42-0.74-3.92-0.74
				c-2.8,0-5.17,0.83-7.11,2.52c-1.95,1.69-3.02,3.85-3.23,6.49H648.91z"/>
			<rect x="687.14" y="375.53" class="st1" width="9.79" height="55.02"/>
			<path class="st1" d="M708.59,393.26h8.86v5.98h0.15c0.83-1.86,2.27-3.52,4.31-4.94c2.05-1.42,4.47-2.13,7.27-2.13
				c2.43,0,4.52,0.43,6.25,1.29c1.74,0.85,3.16,1.97,4.27,3.37c1.12,1.4,1.93,3.01,2.45,4.82c0.52,1.81,0.78,3.68,0.78,5.6v23.31
				h-9.32v-20.66c0-1.09-0.08-2.23-0.23-3.43c-0.16-1.19-0.49-2.27-1.02-3.22c-0.51-0.96-1.23-1.76-2.13-2.37
				c-0.91-0.62-2.11-0.93-3.62-0.93c-1.5,0-2.8,0.3-3.88,0.9c-1.09,0.6-1.98,1.36-2.68,2.29c-0.7,0.93-1.23,2.01-1.59,3.22
				c-0.36,1.23-0.54,2.45-0.54,3.7v20.51h-9.32V393.26z"/>
			<path class="st1" d="M791.74,430.55h-8.86v-5.59h-0.16c-1.3,2.17-3.1,3.83-5.4,4.98c-2.3,1.14-4.78,1.71-7.42,1.71
				c-2.84,0-5.4-0.54-7.65-1.59c-2.25-1.07-4.17-2.49-5.75-4.28c-1.58-1.78-2.8-3.88-3.65-6.29c-0.86-2.41-1.28-4.99-1.28-7.73
				c0-2.75,0.43-5.31,1.32-7.7c0.88-2.39,2.13-4.46,3.73-6.21c1.6-1.77,3.52-3.15,5.75-4.16c2.23-1.02,4.66-1.52,7.31-1.52
				c1.71,0,3.24,0.19,4.59,0.58c1.34,0.38,2.53,0.87,3.53,1.44c1.01,0.56,1.88,1.19,2.6,1.87c0.73,0.67,1.32,1.32,1.79,1.93h0.23
				v-26.18h9.32V430.55z M761.04,411.76c0,1.45,0.22,2.89,0.66,4.35c0.44,1.45,1.1,2.74,1.98,3.88c0.88,1.14,2,2.07,3.34,2.8
				c1.35,0.74,2.93,1.09,4.74,1.09c1.71,0,3.24-0.35,4.59-1.05c1.34-0.69,2.5-1.62,3.46-2.75c0.96-1.14,1.68-2.43,2.17-3.85
				c0.49-1.42,0.74-2.86,0.74-4.32c0-1.45-0.25-2.91-0.74-4.35c-0.49-1.47-1.21-2.75-2.17-3.89c-0.96-1.14-2.11-2.07-3.46-2.8
				c-1.35-0.73-2.88-1.09-4.59-1.09c-1.82,0-3.4,0.35-4.74,1.05c-1.34,0.69-2.46,1.62-3.34,2.75c-0.88,1.14-1.54,2.43-1.98,3.85
				C761.26,408.86,761.04,410.29,761.04,411.76"/>
			<path class="st1" d="M803.24,393.25h9.32v37.31h-9.32V393.25z M811.01,375.53h10.56l-10.95,11.2h-7.31L811.01,375.53z"/>
			<path class="st1" d="M861.83,393.26v33.96c0,3.37-0.42,6.42-1.24,9.13c-0.83,2.72-2.12,5.03-3.85,6.92
				c-1.74,1.9-3.92,3.36-6.56,4.39c-2.64,1.04-5.78,1.56-9.4,1.56c-1.5,0-3.09-0.13-4.78-0.39c-1.68-0.26-3.34-0.65-4.97-1.17
				c-1.63-0.51-3.2-1.16-4.71-1.94c-1.5-0.78-2.84-1.66-4.04-2.65l5.36-7.22c1.82,1.7,3.86,3.01,6.14,3.92
				c2.28,0.9,4.59,1.36,6.92,1.36c2.22,0,4.1-0.33,5.63-0.98c1.53-0.65,2.75-1.54,3.65-2.69c0.91-1.14,1.55-2.49,1.94-4.06
				c0.39-1.56,0.58-3.27,0.58-5.15v-2.73h-0.16c-1.35,1.83-3.07,3.24-5.17,4.21c-2.1,0.97-4.45,1.45-7.04,1.45
				c-2.8,0-5.33-0.53-7.62-1.56c-2.28-1.04-4.21-2.44-5.79-4.2c-1.58-1.76-2.81-3.81-3.69-6.18c-0.88-2.35-1.32-4.86-1.32-7.49
				c0-2.7,0.42-5.24,1.28-7.62c0.86-2.38,2.07-4.46,3.65-6.21c1.58-1.77,3.5-3.17,5.75-4.2c2.25-1.04,4.77-1.56,7.58-1.56
				c2.64,0,5.1,0.55,7.38,1.64c2.28,1.08,4.09,2.78,5.44,5.05h0.16v-5.6H861.83z M841.94,399.79c-1.71,0-3.22,0.31-4.55,0.93
				c-1.32,0.62-2.43,1.45-3.34,2.52c-0.91,1.05-1.6,2.31-2.1,3.75c-0.49,1.45-0.74,3-0.74,4.65c0,1.5,0.24,2.94,0.74,4.34
				c0.49,1.4,1.19,2.64,2.1,3.76c0.91,1.11,2.02,2,3.34,2.67c1.32,0.67,2.81,1.01,4.47,1.01c1.71,0,3.25-0.32,4.63-0.96
				c1.37-0.65,2.54-1.52,3.5-2.6c0.96-1.09,1.7-2.34,2.21-3.75c0.52-1.42,0.78-2.9,0.78-4.45c0-1.61-0.26-3.12-0.78-4.58
				c-0.51-1.44-1.25-2.71-2.21-3.8c-0.96-1.08-2.11-1.93-3.46-2.55C845.17,400.1,843.64,399.79,841.94,399.79"/>
			<path class="st1" d="M908.61,412.37v1.24c0,0.42-0.03,0.83-0.08,1.25h-28.37c0.1,1.36,0.45,2.58,1.05,3.7
				c0.59,1.11,1.38,2.07,2.37,2.87c0.98,0.8,2.1,1.43,3.34,1.9c1.24,0.47,2.54,0.7,3.88,0.7c2.34,0,4.3-0.43,5.91-1.28
				c1.6-0.86,2.93-2.03,3.96-3.54l6.22,4.98c-3.68,4.97-9.01,7.46-16.01,7.46c-2.91,0-5.57-0.47-8.01-1.37
				c-2.43-0.91-4.55-2.19-6.33-3.85c-1.79-1.65-3.19-3.68-4.2-6.1c-1.01-2.4-1.52-5.13-1.52-8.19c0-3.01,0.5-5.74,1.52-8.21
				c1.01-2.46,2.4-4.55,4.16-6.29c1.76-1.74,3.84-3.09,6.26-4.04c2.41-0.95,5.01-1.44,7.81-1.44c2.59,0,4.99,0.42,7.19,1.29
				c2.21,0.86,4.1,2.11,5.71,3.81c1.61,1.68,2.86,3.78,3.77,6.29C908.16,406.06,908.61,409,908.61,412.37 M899.29,408.18
				c0-1.19-0.17-2.33-0.5-3.42c-0.34-1.09-0.87-2.05-1.59-2.88c-0.73-0.82-1.65-1.49-2.76-1.97c-1.12-0.5-2.42-0.74-3.92-0.74
				c-2.8,0-5.17,0.83-7.11,2.52c-1.94,1.69-3.02,3.85-3.22,6.49H899.29z"/>
			<path class="st1" d="M917.63,393.26h8.86v5.98h0.16c0.82-1.86,2.26-3.52,4.31-4.94c2.05-1.42,4.47-2.13,7.27-2.13
				c2.43,0,4.52,0.43,6.25,1.29c1.74,0.85,3.16,1.97,4.27,3.37c1.12,1.4,1.93,3.01,2.45,4.82c0.52,1.81,0.78,3.68,0.78,5.6v23.31
				h-9.32v-20.66c0-1.09-0.08-2.23-0.23-3.43c-0.16-1.19-0.49-2.27-1.01-3.22c-0.52-0.96-1.23-1.76-2.14-2.37
				c-0.91-0.62-2.11-0.93-3.62-0.93c-1.5,0-2.8,0.3-3.88,0.9c-1.09,0.6-1.98,1.36-2.68,2.29c-0.7,0.93-1.23,2.01-1.59,3.22
				c-0.36,1.23-0.54,2.45-0.54,3.7v20.51h-9.32V393.26z"/>
			<path class="st1" d="M986.01,425.82h-0.23c-0.93,1.66-2.43,3.03-4.51,4.08c-2.07,1.06-4.43,1.59-7.07,1.59
				c-1.5,0-3.07-0.2-4.7-0.58c-1.63-0.39-3.14-1.04-4.51-1.95c-1.37-0.9-2.51-2.1-3.42-3.57c-0.91-1.47-1.36-3.31-1.36-5.49
				c0-2.8,0.79-5.02,2.37-6.69c1.58-1.65,3.62-2.92,6.1-3.8c2.49-0.89,5.25-1.46,8.28-1.76c3.03-0.28,6-0.42,8.9-0.42v-0.93
				c0-2.34-0.85-4.05-2.53-5.17c-1.69-1.12-3.69-1.67-6.02-1.67c-1.97,0-3.86,0.41-5.68,1.24c-1.82,0.83-3.31,1.84-4.5,3.03
				l-4.82-5.67c2.12-1.97,4.57-3.45,7.34-4.42c2.77-0.99,5.59-1.48,8.43-1.48c3.31,0,6.05,0.47,8.2,1.4
				c2.15,0.93,3.85,2.16,5.09,3.65c1.25,1.51,2.12,3.19,2.61,5.05c0.49,1.87,0.74,3.73,0.74,5.59v22.69h-8.71V425.82z
				 M985.86,413.54h-2.1c-1.5,0-3.08,0.06-4.74,0.19c-1.66,0.12-3.19,0.4-4.59,0.85c-1.4,0.44-2.56,1.06-3.5,1.87
				c-0.93,0.81-1.4,1.91-1.4,3.31c0,0.88,0.19,1.62,0.58,2.21c0.39,0.6,0.9,1.08,1.52,1.43c0.62,0.37,1.32,0.63,2.1,0.79
				c0.78,0.14,1.56,0.23,2.33,0.23c3.21,0,5.65-0.86,7.31-2.56c1.66-1.72,2.49-4.04,2.49-7V413.54z"/>
			<path class="st1" d="M1026.03,403.2c-0.83-1.08-1.97-2.03-3.42-2.83c-1.45-0.8-3.03-1.21-4.74-1.21c-1.51,0-2.88,0.31-4.12,0.93
				c-1.24,0.63-1.86,1.67-1.86,3.11c0,1.45,0.69,2.47,2.06,3.07c1.37,0.6,3.38,1.2,6.02,1.83c1.4,0.3,2.81,0.73,4.23,1.24
				c1.43,0.52,2.72,1.21,3.89,2.06c1.16,0.86,2.11,1.92,2.83,3.19c0.73,1.28,1.09,2.82,1.09,4.63c0,2.28-0.43,4.21-1.28,5.79
				c-0.85,1.58-1.99,2.85-3.42,3.85c-1.43,0.99-3.08,1.69-4.98,2.14c-1.89,0.43-3.85,0.66-5.86,0.66c-2.91,0-5.72-0.54-8.47-1.59
				c-2.75-1.06-5.02-2.58-6.83-4.55l6.14-5.75c1.03,1.34,2.38,2.46,4.04,3.34c1.66,0.89,3.5,1.32,5.51,1.32
				c0.67,0,1.36-0.08,2.06-0.23c0.7-0.16,1.34-0.4,1.95-0.75c0.59-0.34,1.07-0.78,1.44-1.36c0.36-0.56,0.54-1.27,0.54-2.1
				c0-1.55-0.71-2.67-2.13-3.34c-1.43-0.67-3.56-1.34-6.41-2.02c-1.4-0.31-2.76-0.72-4.08-1.2c-1.32-0.5-2.5-1.14-3.54-1.94
				c-1.03-0.8-1.86-1.8-2.48-2.99c-0.62-1.2-0.93-2.67-0.93-4.43c0-2.07,0.42-3.86,1.28-5.37c0.86-1.5,1.98-2.73,3.38-3.69
				c1.4-0.95,2.97-1.67,4.74-2.13c1.76-0.47,3.58-0.7,5.44-0.7c2.69,0,5.32,0.47,7.89,1.4c2.56,0.93,4.6,2.35,6.1,4.28
				L1026.03,403.2z"/>
		</g>
	</g>
</mask>
<linearGradient id="SVGID_00000000903712419944572890000017345312059547627657_" gradientUnits="userSpaceOnUse" x1="61" y1="261.7419" x2="1047" y2="261.7419">
	<stop  offset="0" style="stop-color:#E01F26"/>
	<stop  offset="0.026" style="stop-color:#E21F2F"/>
	<stop  offset="0.1186" style="stop-color:#E62151"/>
	<stop  offset="0.1951" style="stop-color:#E92167"/>
	<stop  offset="0.2516" style="stop-color:#EC2174"/>
	<stop  offset="0.2821" style="stop-color:#ED2079"/>
	<stop  offset="0.3653" style="stop-color:#CF237D"/>
	<stop  offset="0.4801" style="stop-color:#AC2782"/>
	<stop  offset="0.5941" style="stop-color:#902A87"/>
	<stop  offset="0.7047" style="stop-color:#7B2C8A"/>
	<stop  offset="0.8112" style="stop-color:#6A2D8C"/>
	<stop  offset="0.9117" style="stop-color:#602E8E"/>
	<stop  offset="1" style="stop-color:#5C2E8E"/>
</linearGradient>
<rect x="61" y="55" style="mask:url(#SVGID_1_);fill:url(#SVGID_00000000903712419944572890000017345312059547627657_);" width="986" height="413.48"/>
</svg>
